<svg xmlns="http://www.w3.org/2000/svg" version="1.1" xmlns:xlink="http://www.w3.org/1999/xlink" xmlns:svgjs="http://svgjs.dev/svgjs" width="1440" height="560" preserveAspectRatio="none" viewBox="0 0 1440 560"><g mask="url(&quot;#SvgjsMask2919&quot;)" fill="none"><path d="M1002.13 494.72 a22.6 22.6 0 1 0 45.2 0 a22.6 22.6 0 1 0 -45.2 0z" stroke="rgba(54, 194, 206, 1)"></path><path d="M281.78 210.63 a11.88 11.88 0 1 0 23.76 0 a11.88 11.88 0 1 0 -23.76 0z" stroke="rgba(119, 228, 200, 1)"></path><path d="M1186.01 262.46L1222.62 262.46L1222.62 298.91L1186.01 298.91z" fill="rgba(69, 53, 193, 1)"></path><path d="M422.76 411.76L425.97 411.76L425.97 414.97L422.76 414.97z" stroke="rgba(119, 228, 200, 1)"></path><path d="M1054.23 227.86L1098.25 227.86L1098.25 271.88L1054.23 271.88z" stroke="rgba(54, 194, 206, 1)"></path><path d="M786.44 183.28a9.49 9.49 0 1 0-18.97 0.57z" fill="rgba(54, 194, 206, 1)"></path><path d="M614.51 93.68a55.86 55.86 0 1 0 14.11 110.83z" fill="rgba(119, 228, 200, 1)"></path><path d="M650.62 240.66L706.41 240.66L706.41 296.45L650.62 296.45z" stroke="rgba(54, 194, 206, 1)"></path><path d="M1109.27 555.01L1130.26 555.01L1130.26 567.05L1109.27 567.05z" fill="rgba(54, 194, 206, 1)"></path><path d="M384.01 330.49a21.04 21.04 0 1 0 41.86 4.28z" stroke="rgba(54, 194, 206, 1)"></path><path d="M22.35 100.82L34.1 100.82L34.1 112.57L22.35 112.57z" stroke="rgba(54, 194, 206, 1)"></path><path d="M245.92 7.1L275.18 7.1L275.18 57.96L245.92 57.96z" fill="rgba(119, 228, 200, 1)"></path><path d="M928.95 28.16L931.76 28.16L931.76 30.97L928.95 30.97z" fill="rgba(119, 228, 200, 1)"></path><path d="M671.29 446.22a19.18 19.18 0 1 0-22.32-31.2z" stroke="rgba(54, 194, 206, 1)"></path><path d="M759.18 321.55a30.06 30.06 0 1 0 58.76-12.72z" fill="rgba(119, 228, 200, 1)"></path><path d="M428.75 319.47 a25.89 25.89 0 1 0 51.78 0 a25.89 25.89 0 1 0 -51.78 0z" stroke="rgba(69, 53, 193, 1)"></path><path d="M261.51 369.79L278.02 369.79L278.02 386.3L261.51 386.3z" stroke="rgba(69, 53, 193, 1)"></path><path d="M941.42 557.3L959.31 557.3L959.31 588.53L941.42 588.53z" stroke="rgba(54, 194, 206, 1)"></path><path d="M263.49 284.38L290.13 284.38L290.13 311.02L263.49 311.02z" fill="rgba(54, 194, 206, 1)"></path><path d="M222.57 34.82L277.81 34.82L277.81 90.06L222.57 90.06z" stroke="rgba(69, 53, 193, 1)"></path><path d="M148.49 369.87L184.41 369.87L184.41 408.38L148.49 408.38z" stroke="rgba(69, 53, 193, 1)"></path><path d="M778.28 65.86a31.3 31.3 0 1 0 58.33 22.72z" stroke="rgba(119, 228, 200, 1)"></path><path d="M1080.44 151.33 a54.71 54.71 0 1 0 109.42 0 a54.71 54.71 0 1 0 -109.42 0z" stroke="rgba(54, 194, 206, 1)"></path><path d="M123.35 348.39L132.15 348.39L132.15 357.19L123.35 357.19z" stroke="rgba(119, 228, 200, 1)"></path><path d="M704.44 73.09L748.34 73.09L748.34 94.43L704.44 94.43z" stroke="rgba(119, 228, 200, 1)"></path><path d="M493.61 186.06 a26.49 26.49 0 1 0 52.98 0 a26.49 26.49 0 1 0 -52.98 0z" stroke="rgba(119, 228, 200, 1)"></path><path d="M1106 554.42 a20.62 20.62 0 1 0 41.24 0 a20.62 20.62 0 1 0 -41.24 0z" stroke="rgba(54, 194, 206, 1)"></path><path d="M649.57 392.27 a22.62 22.62 0 1 0 45.24 0 a22.62 22.62 0 1 0 -45.24 0z" fill="rgba(119, 228, 200, 1)"></path><path d="M1006.82 304.95L1030.27 304.95L1030.27 328.4L1006.82 328.4z" stroke="rgba(69, 53, 193, 1)"></path><path d="M1296.84 478.68 a18.9 18.9 0 1 0 37.8 0 a18.9 18.9 0 1 0 -37.8 0z" fill="rgba(119, 228, 200, 1)"></path><path d="M1166.81 45.21a9.2 9.2 0 1 0-16.2 8.72z" fill="rgba(54, 194, 206, 1)"></path><path d="M1120.73 221.88a32.81 32.81 0 1 0 63.72-15.68z" stroke="rgba(54, 194, 206, 1)"></path><path d="M409.84 17.59L442.13 17.59L442.13 49.88L409.84 49.88z" fill="rgba(69, 53, 193, 1)"></path></g><defs><mask id="SvgjsMask2919"><rect width="1440" height="560" fill="#ffffff"></rect></mask></defs></svg>