<?xml version="1.0" encoding="utf-8"?>
<!-- Generator: Adobe Illustrator 27.5.0, SVG Export Plug-In . SVG Version: 6.00 Build 0)  -->
<svg version="1.1" id="Layer_1" xmlns="http://www.w3.org/2000/svg" xmlns:xlink="http://www.w3.org/1999/xlink" x="0px" y="0px"
	 viewBox="305.393 278.85 28.417 23.875" style="enable-background:new 305.393 278.85 28.417 23.875;" xml:space="preserve">
<rect x="305.393" y="278.949" style="fill-rule:evenodd;clip-rule:evenodd;fill:transparent;" width="28.418" height="23.875"/>
<g>
	
		<radialGradient id="SVGID_1_" cx="317.4477" cy="23791.7773" r="7.3953" fx="323.4618" fy="23794.7598" gradientTransform="matrix(0.9186 0.2092 -0.0508 0.2528 1234.5936 -5788.4722)" gradientUnits="userSpaceOnUse">
		<stop  offset="0" style="stop-color:#000000"/>
		<stop  offset="0.0702" style="stop-color:#212121"/>
		<stop  offset="0.2042" style="stop-color:#5B5B5B"/>
		<stop  offset="0.3383" style="stop-color:#8D8D8D"/>
		<stop  offset="0.4694" style="stop-color:#B6B6B6"/>
		<stop  offset="0.5969" style="stop-color:#D6D6D6"/>
		<stop  offset="0.7199" style="stop-color:#EDEDED"/>
		<stop  offset="0.8362" style="stop-color:#FAFAFA"/>
		<stop  offset="0.939" style="stop-color:#FFFFFF"/>
	</radialGradient>
	<path style="opacity:0.62;fill:url(#SVGID_1_);" d="M325.337,294.7c-0.429,2.139-4.117,3.11-8.237,2.173
		c-4.118-0.938-7.109-3.432-6.679-5.569c0.43-2.139,4.118-3.112,8.236-2.174C322.776,290.067,325.767,292.563,325.337,294.7z"/>
	
		<radialGradient id="SVGID_00000161632605168880345220000005601137363025154746_" cx="311.7052" cy="23796.1348" r="7.3952" fx="317.7193" fy="23799.1172" gradientTransform="matrix(-0.9186 0.2092 0.0508 0.2528 -601.6243 -5788.4722)" gradientUnits="userSpaceOnUse">
		<stop  offset="0" style="stop-color:#000000"/>
		<stop  offset="0.0702" style="stop-color:#212121"/>
		<stop  offset="0.2042" style="stop-color:#5B5B5B"/>
		<stop  offset="0.3383" style="stop-color:#8D8D8D"/>
		<stop  offset="0.4694" style="stop-color:#B6B6B6"/>
		<stop  offset="0.5969" style="stop-color:#D6D6D6"/>
		<stop  offset="0.7199" style="stop-color:#EDEDED"/>
		<stop  offset="0.8362" style="stop-color:#FAFAFA"/>
		<stop  offset="0.939" style="stop-color:#FFFFFF"/>
	</radialGradient>
	<path style="opacity:0.62;fill:url(#SVGID_00000161632605168880345220000005601137363025154746_);" d="M313.128,294.601
		c0.43,2.139,4.118,3.11,8.237,2.173c4.118-0.938,7.11-3.432,6.679-5.569c-0.429-2.139-4.118-3.112-8.235-2.174
		C315.691,289.968,312.699,292.463,313.128,294.601z"/>
	<g>
		<path style="fill-rule:evenodd;clip-rule:evenodd;fill:#475E88;" d="M323.79,293.852l3.881-6.078c0.715-1.235-2.388-1.269-3.209,0
			l-2.274,3.567L323.79,293.852z"/>
		<defs>
			<filter id="Adobe_OpacityMaskFilter" filterUnits="userSpaceOnUse" x="323.527" y="285.884" width="4.725" height="6.761">
				<feColorMatrix  type="matrix" values="1 0 0 0 0  0 1 0 0 0  0 0 1 0 0  0 0 0 1 0"/>
			</filter>
		</defs>
		
			<mask maskUnits="userSpaceOnUse" x="323.527" y="285.884" width="4.725" height="6.761" id="SVGID_00000095304836173588355070000012228376188505072026_">
			<g style="filter:url(#Adobe_OpacityMaskFilter);">
				
					<linearGradient id="SVGID_00000103967559126764035360000007129838938174425990_" gradientUnits="userSpaceOnUse" x1="386.8325" y1="318.4453" x2="383.3503" y2="312.258" gradientTransform="matrix(0.9765 -0.098 -0.0932 -0.9807 -20.6157 637.1276)">
					<stop  offset="0" style="stop-color:#000000"/>
					<stop  offset="0.0849" style="stop-color:#090909"/>
					<stop  offset="0.2266" style="stop-color:#232323"/>
					<stop  offset="0.4076" style="stop-color:#4D4D4D"/>
					<stop  offset="0.6207" style="stop-color:#878787"/>
					<stop  offset="0.8582" style="stop-color:#D0D0D0"/>
					<stop  offset="1" style="stop-color:#FFFFFF"/>
				</linearGradient>
				<polygon style="fill:url(#SVGID_00000103967559126764035360000007129838938174425990_);" points="329.35,284.012 
					322.909,286.05 323.41,294.659 329.854,292.626 				"/>
			</g>
		</mask>
		<g style="mask:url(#SVGID_00000095304836173588355070000012228376188505072026_);">
			<path style="fill:#FFFFFF;" d="M323.527,291.694l0.979,0.952l3.746-5.921l-1.374-0.84c0,0-1.602,2.536-1.661,3.932
				C325.114,292.119,323.527,291.694,323.527,291.694z"/>
			<path style="fill:#FBFBFB;" d="M323.53,291.696l0.978,0.946l3.719-5.877l-1.349-0.865c0,0-1.585,2.546-1.653,3.93
				C325.111,292.127,323.53,291.696,323.53,291.696z"/>
			<path style="fill:#F7F7F7;" d="M323.533,291.697l0.977,0.94l3.692-5.834l-1.324-0.889c0,0-1.57,2.557-1.646,3.927
				C325.103,292.137,323.533,291.697,323.533,291.697z"/>
			<path style="fill:#F3F3F3;" d="M323.535,291.699l0.977,0.934l3.665-5.79l-1.299-0.913c0,0-1.555,2.567-1.639,3.925
				C325.097,292.145,323.535,291.699,323.535,291.699z"/>
			<path style="fill:#EFEFEF;" d="M323.538,291.701l0.977,0.928l3.638-5.747l-1.274-0.937c0,0-1.54,2.578-1.632,3.922
				C325.089,292.153,323.538,291.701,323.538,291.701z"/>
			<path style="fill:#EBEBEB;" d="M323.54,291.703l0.976,0.922l3.61-5.703l-1.249-0.961c0,0-1.525,2.589-1.624,3.921
				C325.083,292.162,323.54,291.703,323.54,291.703z"/>
			<path style="fill:#E8E8E8;" d="M323.544,291.705l0.975,0.917l3.584-5.66l-1.225-0.985c0,0-1.511,2.599-1.617,3.918
				C325.076,292.17,323.544,291.705,323.544,291.705z"/>
			<path style="fill:#E4E4E4;" d="M323.545,291.706l0.975,0.91l3.557-5.616l-1.199-1.009c0,0-1.496,2.61-1.609,3.915
				C325.07,292.18,323.545,291.706,323.545,291.706z"/>
			<path style="fill:#E0E0E0;" d="M323.548,291.708l0.974,0.904l3.529-5.572l-1.174-1.034c0,0-1.481,2.62-1.603,3.913
				C325.063,292.188,323.548,291.708,323.548,291.708z"/>
			<path style="fill:#DCDCDC;" d="M323.551,291.71l0.973,0.898l3.503-5.529l-1.149-1.058c0,0-1.467,2.63-1.595,3.91
				C325.055,292.197,323.551,291.71,323.551,291.71z"/>
			<path style="fill:#D8D8D8;" d="M323.554,291.711l0.972,0.893l3.476-5.485l-1.124-1.082c0,0-1.452,2.641-1.588,3.908
				C325.048,292.205,323.554,291.711,323.554,291.711z"/>
			<path style="fill:#D4D4D4;" d="M323.556,291.713l0.972,0.887l3.449-5.442l-1.1-1.106c0,0-1.438,2.652-1.58,3.906
				C325.042,292.214,323.556,291.713,323.556,291.713z"/>
			<path style="fill:#D0D0D0;" d="M323.559,291.715l0.972,0.881l3.421-5.398l-1.074-1.13c0,0-1.424,2.663-1.573,3.903
				C325.034,292.224,323.559,291.715,323.559,291.715z"/>
			<path style="fill:#CCCCCC;" d="M323.562,291.717l0.971,0.875l3.394-5.354l-1.049-1.154c0,0-1.41,2.673-1.565,3.9
				C325.027,292.231,323.562,291.717,323.562,291.717z"/>
			<path style="fill:#C8C8C8;" d="M323.565,291.719l0.97,0.869l3.367-5.311l-1.024-1.179c0,0-1.396,2.683-1.559,3.898
				C325.018,292.241,323.565,291.719,323.565,291.719z"/>
			<path style="fill:#C4C4C4;" d="M323.567,291.72l0.97,0.864l3.34-5.268l-0.999-1.203c0,0-1.382,2.694-1.551,3.896
				C325.011,292.25,323.567,291.72,323.567,291.72z"/>
			<path style="fill:#C0C0C0;" d="M323.57,291.722l0.969,0.858l3.314-5.225l-0.975-1.227c0,0-1.368,2.705-1.544,3.893
				C325.002,292.258,323.57,291.722,323.57,291.722z"/>
			<path style="fill:#BDBDBD;" d="M323.573,291.724l0.968,0.851l3.286-5.18l-0.949-1.251c0,0-1.354,2.715-1.536,3.891
				C324.996,292.268,323.573,291.724,323.573,291.724z"/>
			<path style="fill:#B9B9B9;" d="M323.576,291.726l0.967,0.846l3.26-5.137l-0.925-1.275c0,0-1.341,2.726-1.529,3.889
				C324.987,292.276,323.576,291.726,323.576,291.726z"/>
			<path style="fill:#B5B5B5;" d="M323.579,291.728l0.966,0.84l3.232-5.093l-0.899-1.299c0,0-1.327,2.736-1.521,3.886
				C324.979,292.286,323.579,291.728,323.579,291.728z"/>
			<path style="fill:#B1B1B1;" d="M323.581,291.729l0.967,0.835l3.204-5.05l-0.874-1.323c0,0-1.313,2.747-1.515,3.884
				C324.969,292.295,323.581,291.729,323.581,291.729z"/>
			<path style="fill:#ADADAD;" d="M323.583,291.731l0.966,0.828l3.178-5.006l-0.85-1.348c0,0-1.3,2.758-1.507,3.881
				C324.961,292.304,323.583,291.731,323.583,291.731z"/>
			<path style="fill:#A9A9A9;" d="M323.586,291.733l0.965,0.822l3.15-4.962l-0.824-1.372c0,0-1.287,2.768-1.5,3.879
				C324.953,292.313,323.586,291.733,323.586,291.733z"/>
			<path style="fill:#A5A5A5;" d="M323.589,291.734l0.964,0.816l3.124-4.919l-0.8-1.396c0,0-1.273,2.779-1.492,3.876
				C324.945,292.321,323.589,291.734,323.589,291.734z"/>
			<path style="fill:#A1A1A1;" d="M323.591,291.736l0.964,0.811l3.097-4.876l-0.774-1.42c0,0-1.261,2.789-1.485,3.874
				C324.935,292.331,323.591,291.736,323.591,291.736z"/>
			<path style="fill:#9D9D9D;" d="M323.594,291.738l0.963,0.805l3.069-4.833l-0.749-1.444c0,0-1.247,2.8-1.478,3.872
				C324.926,292.34,323.594,291.738,323.594,291.738z"/>
			<path style="fill:#999999;" d="M323.597,291.74l0.962,0.798l3.043-4.788l-0.725-1.468c0,0-1.234,2.811-1.471,3.869
				C324.915,292.348,323.597,291.74,323.597,291.74z"/>
			<path style="fill:#959595;" d="M323.6,291.742l0.961,0.793l3.016-4.745l-0.699-1.493c0,0-1.222,2.821-1.463,3.867
				C324.908,292.357,323.6,291.742,323.6,291.742z"/>
			<path style="fill:#929292;" d="M323.602,291.743l0.962,0.787l2.988-4.702l-0.675-1.517c0,0-1.209,2.832-1.456,3.864
				C324.897,292.366,323.602,291.743,323.602,291.743z"/>
			<path style="fill:#8E8E8E;" d="M323.605,291.745l0.961,0.781l2.961-4.658l-0.649-1.541c0,0-1.196,2.842-1.448,3.862
				C324.888,292.376,323.605,291.745,323.605,291.745z"/>
			<path style="fill:#8A8A8A;" d="M323.608,291.747l0.96,0.774l2.935-4.614l-0.625-1.565c0,0-1.184,2.853-1.441,3.859
				C324.877,292.384,323.608,291.747,323.608,291.747z"/>
			<path style="fill:#868686;" d="M323.611,291.749l0.959,0.769l2.907-4.57l-0.6-1.589c0,0-1.171,2.863-1.434,3.857
				C324.867,292.393,323.611,291.749,323.611,291.749z"/>
			<path style="fill:#828282;" d="M323.613,291.751l0.959,0.763l2.88-4.527l-0.574-1.613c0,0-1.158,2.874-1.427,3.854
				C324.856,292.401,323.613,291.751,323.613,291.751z"/>
			<path style="fill:#7E7E7E;" d="M323.616,291.752l0.958,0.758l2.853-4.484l-0.55-1.637c0,0-1.146,2.884-1.419,3.852
				C324.846,292.41,323.616,291.752,323.616,291.752z"/>
			<path style="fill:#7A7A7A;" d="M323.619,291.754l0.957,0.752l2.826-4.441l-0.524-1.662c0,0-1.134,2.895-1.412,3.85
				C324.835,292.419,323.619,291.754,323.619,291.754z"/>
			<path style="fill:#767676;" d="M323.622,291.756l0.956,0.745l2.8-4.396l-0.5-1.686c0,0-1.122,2.905-1.404,3.847
				C324.825,292.428,323.622,291.756,323.622,291.756z"/>
			<path style="fill:#727272;" d="M323.624,291.757l0.957,0.74l2.772-4.353l-0.475-1.71c0,0-1.109,2.915-1.397,3.845
				C324.812,292.436,323.624,291.757,323.624,291.757z"/>
			<path style="fill:#6E6E6E;" d="M323.626,291.759l0.956,0.734l2.744-4.31l-0.449-1.734c0,0-1.098,2.925-1.39,3.842
				C324.802,292.444,323.626,291.759,323.626,291.759z"/>
			<path style="fill:#6A6A6A;" d="M323.629,291.761l0.955,0.729l2.718-4.266l-0.425-1.758c0,0-1.086,2.936-1.383,3.84
				C324.79,292.452,323.629,291.761,323.629,291.761z"/>
			<path style="fill:#676767;" d="M323.632,291.763l0.954,0.722l2.69-4.222l-0.399-1.783c0,0-1.074,2.946-1.375,3.838
				C324.779,292.461,323.632,291.763,323.632,291.763z"/>
			<path style="fill:#636363;" d="M323.635,291.765l0.953,0.716l2.664-4.178l-0.375-1.807c0,0-1.063,2.956-1.368,3.835
				C324.765,292.469,323.635,291.765,323.635,291.765z"/>
			<path style="fill:#5F5F5F;" d="M323.637,291.766l0.953,0.711l2.637-4.135l-0.35-1.831c0,0-1.051,2.967-1.36,3.833
				C324.754,292.477,323.637,291.766,323.637,291.766z"/>
			<path style="fill:#5B5B5B;" d="M323.64,291.768l0.952,0.705l2.61-4.092l-0.325-1.855c0,0-1.039,2.977-1.354,3.831
				C324.74,292.484,323.64,291.768,323.64,291.768z"/>
			<path style="fill:#575757;" d="M323.643,291.77l0.951,0.699l2.583-4.048l-0.3-1.879c0,0-1.027,2.986-1.346,3.828
				C324.728,292.492,323.643,291.77,323.643,291.77z"/>
			<path style="fill:#535353;" d="M323.646,291.772l0.951,0.692l2.555-4.004l-0.274-1.903c0,0-1.017,2.997-1.339,3.825
				C324.714,292.5,323.646,291.772,323.646,291.772z"/>
			<path style="fill:#4F4F4F;" d="M323.648,291.773l0.951,0.687l2.528-3.961l-0.25-1.927c0,0-1.005,3.006-1.331,3.823
				C324.702,292.507,323.648,291.773,323.648,291.773z"/>
			<path style="fill:#4B4B4B;" d="M323.651,291.775l0.95,0.681l2.501-3.918l-0.225-1.952c0,0-0.994,3.017-1.324,3.821
				C324.688,292.514,323.651,291.775,323.651,291.775z"/>
			<path style="fill:#474747;" d="M323.654,291.777l0.949,0.675l2.475-3.874l-0.2-1.976c0,0-0.981,3.026-1.316,3.818
				C324.673,292.522,323.654,291.777,323.654,291.777z"/>
			<path style="fill:#434343;" d="M323.657,291.779l0.948,0.669l2.447-3.831l-0.175-2c0,0-0.971,3.036-1.31,3.816
				C324.659,292.527,323.657,291.779,323.657,291.779z"/>
			<path style="fill:#3F3F3F;" d="M323.659,291.78l0.948,0.663l2.42-3.787l-0.149-2.024c0,0-0.96,3.046-1.302,3.814
				C324.645,292.535,323.659,291.78,323.659,291.78z"/>
			<path style="fill:#3C3C3C;" d="M323.662,291.782l0.947,0.657l2.394-3.743l-0.125-2.048c0,0-0.949,3.055-1.295,3.811
				C324.629,292.541,323.662,291.782,323.662,291.782z"/>
			<path style="fill:#383838;" d="M323.665,291.784l0.946,0.651l2.366-3.7l-0.1-2.072c0,0-0.938,3.064-1.287,3.809
				C324.616,292.547,323.665,291.784,323.665,291.784z"/>
			<path style="fill:#343434;" d="M323.668,291.786l0.946,0.646l2.339-3.656l-0.075-2.097c0,0-0.928,3.074-1.28,3.806
				C324.599,292.553,323.668,291.786,323.668,291.786z"/>
			<path style="fill:#303030;" d="M323.669,291.788l0.946,0.639l2.311-3.612l-0.05-2.121c0,0-0.916,3.083-1.272,3.804
				C324.583,292.559,323.669,291.788,323.669,291.788z"/>
			<path style="fill:#2C2C2C;" d="M323.672,291.789l0.945,0.634l2.285-3.569l-0.025-2.145c0,0-0.906,3.092-1.266,3.801
				C324.564,292.563,323.672,291.789,323.672,291.789z"/>
			<path style="fill:#282828;" d="M323.675,291.791l0.944,0.628l2.258-3.525v-2.169c0,0-0.894,3.103-1.258,3.799
				C324.554,292.57,323.675,291.791,323.675,291.791z"/>
		</g>
		<path style="fill-rule:evenodd;clip-rule:evenodd;fill:#4DA391;" d="M323.71,293.984l3.96-6.211l0.016-0.034l-2.357,3.497
			c-0.612,0.905-1.559,0.927-2.15,0l-2.209-3.463h-2.245l-0.328,1.247l3.16,4.964C322.152,294.912,323.115,294.912,323.71,293.984
			L323.71,293.984z"/>
		<defs>
			
				<filter id="Adobe_OpacityMaskFilter_00000121241013029567495830000005839312171515510152_" filterUnits="userSpaceOnUse" x="317.533" y="287.799" width="3.462" height="5.103">
				<feColorMatrix  type="matrix" values="1 0 0 0 0  0 1 0 0 0  0 0 1 0 0  0 0 0 1 0"/>
			</filter>
		</defs>
		
			<mask maskUnits="userSpaceOnUse" x="317.533" y="287.799" width="3.462" height="5.103" id="SVGID_00000132053690027683229320000014258379930244080024_">
			<g style="filter:url(#Adobe_OpacityMaskFilter_00000121241013029567495830000005839312171515510152_);">
				
					<linearGradient id="SVGID_00000008144326733927714100000010079967847157288361_" gradientUnits="userSpaceOnUse" x1="393.785" y1="303.9825" x2="391.3068" y2="299.5792" gradientTransform="matrix(0.6296 0.7527 -0.7522 0.636 299.9008 -197.4013)">
					<stop  offset="0" style="stop-color:#000000"/>
					<stop  offset="0.0849" style="stop-color:#090909"/>
					<stop  offset="0.2266" style="stop-color:#232323"/>
					<stop  offset="0.4076" style="stop-color:#4D4D4D"/>
					<stop  offset="0.6207" style="stop-color:#878787"/>
					<stop  offset="0.8582" style="stop-color:#D0D0D0"/>
					<stop  offset="1" style="stop-color:#FFFFFF"/>
				</linearGradient>
				<polygon style="fill:url(#SVGID_00000008144326733927714100000010079967847157288361_);" points="318.862,294.822 
					316.554,290.408 320.8,286.323 323.112,290.739 				"/>
			</g>
		</mask>
		<g style="mask:url(#SVGID_00000132053690027683229320000014258379930244080024_);">
			<polygon style="fill:#FFFFFF;" points="319.492,287.948 320.995,287.799 319.937,292.901 317.533,291.216 			"/>
			<polygon style="fill:#FAFAFA;" points="319.494,287.948 320.993,287.799 319.936,292.857 317.559,291.23 			"/>
			<polygon style="fill:#F5F5F5;" points="319.496,287.948 320.991,287.8 319.934,292.814 317.585,291.245 			"/>
			<polygon style="fill:#F0F0F0;" points="319.498,287.948 320.99,287.8 319.933,292.77 317.611,291.259 			"/>
			<polygon style="fill:#EBEBEB;" points="319.5,287.947 320.988,287.801 319.931,292.726 317.637,291.273 			"/>
			<polygon style="fill:#E5E5E5;" points="319.502,287.947 320.986,287.801 319.93,292.682 317.664,291.287 			"/>
			<polygon style="fill:#E0E0E0;" points="319.504,287.947 320.984,287.802 319.928,292.638 317.69,291.301 			"/>
			<polygon style="fill:#DBDBDB;" points="319.506,287.947 320.983,287.802 319.927,292.595 317.716,291.315 			"/>
			<polygon style="fill:#D6D6D6;" points="319.508,287.947 320.981,287.803 319.926,292.551 317.742,291.33 			"/>
			<polygon style="fill:#D1D1D1;" points="319.51,287.947 320.979,287.803 319.924,292.507 317.769,291.344 			"/>
			<polygon style="fill:#CCCCCC;" points="319.512,287.947 320.977,287.804 319.923,292.463 317.794,291.358 			"/>
			<polygon style="fill:#C7C7C7;" points="319.514,287.947 320.976,287.805 319.921,292.419 317.821,291.373 			"/>
			<polygon style="fill:#C2C2C2;" points="319.516,287.947 320.974,287.805 319.92,292.375 317.847,291.387 			"/>
			<polygon style="fill:#BCBCBC;" points="319.518,287.947 320.972,287.806 319.919,292.331 317.873,291.401 			"/>
			<polygon style="fill:#B7B7B7;" points="319.52,287.947 320.97,287.806 319.917,292.287 317.899,291.415 			"/>
			<polygon style="fill:#B2B2B2;" points="319.522,287.947 320.969,287.807 319.915,292.243 317.925,291.429 			"/>
			<polygon style="fill:#ADADAD;" points="319.523,287.946 320.967,287.807 319.914,292.199 317.952,291.443 			"/>
			<polygon style="fill:#A8A8A8;" points="319.525,287.946 320.965,287.808 319.913,292.155 317.978,291.458 			"/>
			<polygon style="fill:#A3A3A3;" points="319.527,287.946 320.963,287.808 319.911,292.111 318.004,291.472 			"/>
			<polygon style="fill:#9E9E9E;" points="319.529,287.946 320.962,287.809 319.91,292.067 318.03,291.486 			"/>
			<polygon style="fill:#999999;" points="319.531,287.946 320.96,287.809 319.908,292.023 318.056,291.5 			"/>
			<polygon style="fill:#949494;" points="319.533,287.946 320.958,287.81 319.907,291.98 318.083,291.514 			"/>
			<polygon style="fill:#8E8E8E;" points="319.536,287.946 320.957,287.81 319.906,291.937 318.109,291.529 			"/>
			<polygon style="fill:#898989;" points="319.538,287.946 320.955,287.811 319.904,291.893 318.135,291.543 			"/>
			<polygon style="fill:#848484;" points="319.54,287.946 320.954,287.811 319.903,291.848 318.161,291.557 			"/>
			<polygon style="fill:#7F7F7F;" points="319.542,287.946 320.952,287.812 319.901,291.805 318.187,291.571 			"/>
			<polygon style="fill:#7A7A7A;" points="319.544,287.946 320.95,287.812 319.9,291.761 318.213,291.585 			"/>
			<polygon style="fill:#757575;" points="319.545,287.946 320.948,287.813 319.898,291.717 318.24,291.6 			"/>
			<polygon style="fill:#707070;" points="319.547,287.945 320.947,287.813 319.897,291.673 318.266,291.614 			"/>
			<polygon style="fill:#6B6B6B;" points="319.549,287.945 320.945,287.814 319.896,291.629 318.292,291.628 			"/>
			<polygon style="fill:#656565;" points="319.551,287.945 320.943,287.814 319.894,291.585 318.318,291.642 			"/>
			<polygon style="fill:#606060;" points="319.553,287.945 320.941,287.815 319.893,291.541 318.344,291.656 			"/>
			<polygon style="fill:#5B5B5B;" points="319.555,287.945 320.94,287.815 319.891,291.498 318.371,291.67 			"/>
			<polygon style="fill:#565656;" points="319.557,287.945 320.938,287.816 319.89,291.454 318.397,291.685 			"/>
			<polygon style="fill:#515151;" points="319.559,287.945 320.936,287.816 319.888,291.41 318.423,291.699 			"/>
			<polygon style="fill:#4C4C4C;" points="319.561,287.945 320.934,287.817 319.887,291.366 318.449,291.713 			"/>
			<polygon style="fill:#474747;" points="319.563,287.945 320.933,287.817 319.886,291.322 318.475,291.728 			"/>
			<polygon style="fill:#424242;" points="319.565,287.945 320.931,287.818 319.884,291.278 318.501,291.742 			"/>
			<polygon style="fill:#3C3C3C;" points="319.567,287.945 320.929,287.818 319.883,291.234 318.528,291.756 			"/>
			<polygon style="fill:#373737;" points="319.569,287.945 320.927,287.819 319.881,291.19 318.554,291.77 			"/>
			<polygon style="fill:#323232;" points="319.571,287.944 320.926,287.819 319.88,291.147 318.58,291.784 			"/>
			<polygon style="fill:#2D2D2D;" points="319.573,287.944 320.924,287.82 319.878,291.103 318.606,291.798 			"/>
			<polygon style="fill:#282828;" points="319.575,287.944 320.922,287.82 319.877,291.059 318.632,291.813 			"/>
		</g>
		<polygon style="fill-rule:evenodd;clip-rule:evenodd;fill:#475E88;" points="317.09,293.852 320.969,287.773 317.76,287.773 
			315.483,291.34 		"/>
		<defs>
			
				<filter id="Adobe_OpacityMaskFilter_00000158030084557924794080000007645089245561814966_" filterUnits="userSpaceOnUse" x="313.088" y="285.884" width="5.125" height="7.487">
				<feColorMatrix  type="matrix" values="1 0 0 0 0  0 1 0 0 0  0 0 1 0 0  0 0 0 1 0"/>
			</filter>
		</defs>
		
			<mask maskUnits="userSpaceOnUse" x="313.088" y="285.884" width="5.125" height="7.487" id="SVGID_00000160172107520165451890000015007345740621114550_">
			<g style="filter:url(#Adobe_OpacityMaskFilter_00000158030084557924794080000007645089245561814966_);">
				
					<linearGradient id="SVGID_00000175287429921295802470000008208604638240563383_" gradientUnits="userSpaceOnUse" x1="403.7969" y1="316.7498" x2="400.3147" y2="310.5623" gradientTransform="matrix(-0.9765 -0.098 0.0932 -0.9807 679.0796 637.1276)">
					<stop  offset="0" style="stop-color:#000000"/>
					<stop  offset="0.0849" style="stop-color:#090909"/>
					<stop  offset="0.2266" style="stop-color:#232323"/>
					<stop  offset="0.4076" style="stop-color:#4D4D4D"/>
					<stop  offset="0.6207" style="stop-color:#878787"/>
					<stop  offset="0.8582" style="stop-color:#D0D0D0"/>
					<stop  offset="1" style="stop-color:#FFFFFF"/>
				</linearGradient>
				<polygon style="fill:url(#SVGID_00000175287429921295802470000008208604638240563383_);" points="312.39,284.012 
					318.831,286.05 318.332,294.659 311.886,292.626 				"/>
			</g>
		</mask>
		<g style="mask:url(#SVGID_00000160172107520165451890000015007345740621114550_);">
			<path style="fill:#FFFFFF;" d="M318.213,291.694l-1.45,1.677l-3.675-6.279l1.774-1.208c0,0,1.602,2.536,1.663,3.932
				C316.626,292.119,318.213,291.694,318.213,291.694z"/>
			<path style="fill:#FBFBFB;" d="M318.211,291.695l-1.447,1.674l-3.647-6.247l1.745-1.224c0,0,1.59,2.546,1.656,3.93
				C316.635,292.127,318.211,291.695,318.211,291.695z"/>
			<path style="fill:#F8F8F8;" d="M318.208,291.697l-1.443,1.671l-3.619-6.217l1.716-1.24c0,0,1.574,2.555,1.65,3.928
				C316.638,292.134,318.208,291.697,318.208,291.697z"/>
			<path style="fill:#F4F4F4;" d="M318.206,291.699l-1.44,1.668l-3.59-6.186l1.687-1.255c0,0,1.561,2.564,1.643,3.925
				C316.644,292.143,318.206,291.699,318.206,291.699z"/>
			<path style="fill:#F1F1F1;" d="M318.204,291.7l-1.437,1.664l-3.563-6.154l1.658-1.271c0,0,1.547,2.574,1.637,3.923
				C316.65,292.149,318.204,291.7,318.204,291.7z"/>
			<path style="fill:#EDEDED;" d="M318.201,291.702l-1.434,1.662l-3.534-6.124l1.629-1.287c0,0,1.534,2.583,1.63,3.921
				C316.656,292.157,318.201,291.702,318.201,291.702z"/>
			<path style="fill:#EAEAEA;" d="M318.199,291.704l-1.431,1.658l-3.506-6.092l1.6-1.303c0,0,1.52,2.593,1.623,3.919
				C316.662,292.165,318.199,291.704,318.199,291.704z"/>
			<path style="fill:#E6E6E6;" d="M318.197,291.705l-1.427,1.654l-3.478-6.061l1.571-1.318c0,0,1.507,2.603,1.617,3.917
				C316.669,292.173,318.197,291.705,318.197,291.705z"/>
			<path style="fill:#E3E3E3;" d="M318.194,291.707l-1.424,1.652l-3.449-6.03l1.542-1.334c0,0,1.494,2.612,1.61,3.915
				C316.674,292.181,318.194,291.707,318.194,291.707z"/>
			<path style="fill:#DFDFDF;" d="M318.192,291.708l-1.421,1.648l-3.421-5.999l1.513-1.35c0,0,1.481,2.621,1.603,3.913
				C316.681,292.189,318.192,291.708,318.192,291.708z"/>
			<path style="fill:#DCDCDC;" d="M318.19,291.71l-1.418,1.645l-3.393-5.967l1.483-1.366c0,0,1.468,2.63,1.597,3.91
				C316.687,292.196,318.19,291.71,318.19,291.71z"/>
			<path style="fill:#D8D8D8;" d="M318.187,291.711l-1.414,1.642l-3.365-5.937l1.455-1.381c0,0,1.455,2.641,1.59,3.908
				C316.693,292.204,318.187,291.711,318.187,291.711z"/>
			<path style="fill:#D5D5D5;" d="M318.185,291.713l-1.411,1.639l-3.336-5.905l1.425-1.397c0,0,1.442,2.649,1.583,3.906
				C316.7,292.213,318.185,291.713,318.185,291.713z"/>
			<path style="fill:#D1D1D1;" d="M318.182,291.714l-1.408,1.635l-3.309-5.874l1.397-1.413c0,0,1.429,2.659,1.577,3.904
				C316.707,292.22,318.182,291.714,318.182,291.714z"/>
			<path style="fill:#CECECE;" d="M318.18,291.716l-1.404,1.632l-3.28-5.843l1.367-1.429c0,0,1.416,2.668,1.57,3.901
				C316.714,292.229,318.18,291.716,318.18,291.716z"/>
			<path style="fill:#CACACA;" d="M318.177,291.718l-1.401,1.629l-3.252-5.811l1.338-1.444c0,0,1.403,2.678,1.564,3.899
				C316.721,292.236,318.177,291.718,318.177,291.718z"/>
			<path style="fill:#C7C7C7;" d="M318.175,291.719l-1.398,1.625l-3.224-5.78l1.309-1.46c0,0,1.391,2.688,1.557,3.897
				C316.727,292.244,318.175,291.719,318.175,291.719z"/>
			<path style="fill:#C3C3C3;" d="M318.173,291.721l-1.395,1.623l-3.195-5.75l1.28-1.475c0,0,1.378,2.697,1.55,3.895
				C316.734,292.253,318.173,291.721,318.173,291.721z"/>
			<path style="fill:#C0C0C0;" d="M318.17,291.723l-1.392,1.619l-3.168-5.718l1.251-1.492c0,0,1.366,2.707,1.543,3.893
				C316.741,292.26,318.17,291.723,318.17,291.723z"/>
			<path style="fill:#BCBCBC;" d="M318.168,291.724l-1.388,1.616l-3.139-5.686l1.222-1.507c0,0,1.353,2.716,1.537,3.891
				C316.748,292.269,318.168,291.724,318.168,291.724z"/>
			<path style="fill:#B9B9B9;" d="M318.165,291.726l-1.385,1.613l-3.111-5.656l1.193-1.523c0,0,1.341,2.727,1.53,3.889
				C316.756,292.276,318.165,291.726,318.165,291.726z"/>
			<path style="fill:#B5B5B5;" d="M318.163,291.728l-1.381,1.609l-3.083-5.625l1.164-1.539c0,0,1.328,2.736,1.523,3.886
				C316.764,292.285,318.163,291.728,318.163,291.728z"/>
			<path style="fill:#B1B1B1;" d="M318.161,291.729l-1.378,1.606l-3.054-5.593l1.134-1.554c0,0,1.316,2.745,1.517,3.884
				C316.771,292.293,318.161,291.729,318.161,291.729z"/>
			<path style="fill:#AEAEAE;" d="M318.158,291.73l-1.375,1.604l-3.026-5.563l1.105-1.57c0,0,1.304,2.755,1.51,3.882
				C316.778,292.301,318.158,291.73,318.158,291.73z"/>
			<path style="fill:#AAAAAA;" d="M318.156,291.732l-1.372,1.6l-2.998-5.531l1.076-1.586c0,0,1.292,2.765,1.503,3.88
				C316.786,292.31,318.156,291.732,318.156,291.732z"/>
			<path style="fill:#A7A7A7;" d="M318.153,291.734l-1.368,1.596l-2.97-5.5l1.047-1.602c0,0,1.28,2.774,1.497,3.877
				C316.795,292.316,318.153,291.734,318.153,291.734z"/>
			<path style="fill:#A3A3A3;" d="M318.151,291.735l-1.366,1.594l-2.941-5.469l1.018-1.617c0,0,1.268,2.783,1.49,3.875
				C316.802,292.325,318.151,291.735,318.151,291.735z"/>
			<path style="fill:#A0A0A0;" d="M318.149,291.737l-1.362,1.59l-2.914-5.438l0.989-1.633c0,0,1.256,2.793,1.484,3.873
				C316.811,292.333,318.149,291.737,318.149,291.737z"/>
			<path style="fill:#9C9C9C;" d="M318.147,291.738l-1.359,1.587l-2.885-5.406l0.96-1.649c0,0,1.244,2.802,1.477,3.871
				C316.819,292.342,318.147,291.738,318.147,291.738z"/>
			<path style="fill:#999999;" d="M318.144,291.74l-1.355,1.584l-2.857-5.376l0.931-1.665c0,0,1.232,2.813,1.47,3.869
				C316.827,292.35,318.144,291.74,318.144,291.74z"/>
			<path style="fill:#959595;" d="M318.142,291.742l-1.352,1.581l-2.829-5.344l0.902-1.681c0,0,1.221,2.822,1.464,3.867
				C316.836,292.357,318.142,291.742,318.142,291.742z"/>
			<path style="fill:#929292;" d="M318.139,291.743l-1.349,1.577l-2.8-5.313l0.873-1.696c0,0,1.21,2.831,1.457,3.864
				C316.844,292.366,318.139,291.743,318.139,291.743z"/>
			<path style="fill:#8E8E8E;" d="M318.137,291.745l-1.346,1.574l-2.772-5.281l0.844-1.712c0,0,1.198,2.84,1.451,3.862
				C316.854,292.373,318.137,291.745,318.137,291.745z"/>
			<path style="fill:#8B8B8B;" d="M318.134,291.747l-1.342,1.571l-2.744-5.251l0.814-1.728c0,0,1.186,2.85,1.444,3.86
				C316.863,292.382,318.134,291.747,318.134,291.747z"/>
			<path style="fill:#878787;" d="M318.132,291.748l-1.339,1.567l-2.716-5.219l0.785-1.744c0,0,1.175,2.86,1.437,3.858
				C316.872,292.391,318.132,291.748,318.132,291.748z"/>
			<path style="fill:#848484;" d="M318.129,291.75l-1.336,1.564l-2.688-5.188l0.756-1.76c0,0,1.164,2.869,1.431,3.856
				C316.881,292.398,318.129,291.75,318.129,291.75z"/>
			<path style="fill:#808080;" d="M318.127,291.751l-1.333,1.561l-2.659-5.157l0.727-1.775c0,0,1.153,2.878,1.424,3.854
				C316.89,292.406,318.127,291.751,318.127,291.751z"/>
			<path style="fill:#7D7D7D;" d="M318.125,291.753l-1.33,1.558l-2.631-5.125l0.698-1.791c0,0,1.142,2.888,1.417,3.851
				C316.9,292.413,318.125,291.753,318.125,291.753z"/>
			<path style="fill:#797979;" d="M318.123,291.754l-1.326,1.554l-2.603-5.094l0.669-1.807c0,0,1.13,2.897,1.411,3.849
				C316.91,292.421,318.123,291.754,318.123,291.754z"/>
			<path style="fill:#767676;" d="M318.12,291.756l-1.323,1.552l-2.575-5.064l0.64-1.823c0,0,1.119,2.907,1.404,3.847
				C316.919,292.429,318.12,291.756,318.12,291.756z"/>
			<path style="fill:#727272;" d="M318.118,291.757l-1.32,1.548l-2.546-5.032l0.611-1.838c0,0,1.109,2.916,1.397,3.845
				C316.93,292.437,318.118,291.757,318.118,291.757z"/>
			<path style="fill:#6E6E6E;" d="M318.115,291.759l-1.316,1.544l-2.518-5.001l0.582-1.853c0,0,1.098,2.925,1.391,3.842
				C316.94,292.444,318.115,291.759,318.115,291.759z"/>
			<path style="fill:#6B6B6B;" d="M318.113,291.761l-1.313,1.542l-2.49-4.97l0.553-1.87c0,0,1.087,2.935,1.384,3.84
				C316.951,292.451,318.113,291.761,318.113,291.761z"/>
			<path style="fill:#676767;" d="M318.11,291.762l-1.31,1.539l-2.462-4.939l0.523-1.885c0,0,1.076,2.944,1.377,3.838
				C316.962,292.459,318.11,291.762,318.11,291.762z"/>
			<path style="fill:#646464;" d="M318.108,291.764l-1.306,1.535l-2.434-4.907l0.495-1.901c0,0,1.065,2.953,1.371,3.836
				C316.973,292.466,318.108,291.764,318.108,291.764z"/>
			<path style="fill:#606060;" d="M318.105,291.766l-1.303,1.532l-2.405-4.877l0.465-1.917c0,0,1.055,2.962,1.364,3.834
				C316.983,292.474,318.105,291.766,318.105,291.766z"/>
			<path style="fill:#5D5D5D;" d="M318.104,291.767l-1.3,1.529l-2.377-4.845l0.436-1.933c0,0,1.044,2.971,1.357,3.832
				C316.995,292.48,318.104,291.767,318.104,291.767z"/>
			<path style="fill:#595959;" d="M318.101,291.769l-1.297,1.525l-2.349-4.814l0.407-1.948c0,0,1.034,2.98,1.351,3.83
				C317.006,292.487,318.101,291.769,318.101,291.769z"/>
			<path style="fill:#565656;" d="M318.099,291.771l-1.293,1.522l-2.321-4.783l0.378-1.964c0,0,1.024,2.989,1.344,3.827
				C317.018,292.495,318.099,291.771,318.099,291.771z"/>
			<path style="fill:#525252;" d="M318.096,291.772l-1.29,1.519l-2.293-4.752l0.349-1.98c0,0,1.013,2.999,1.337,3.825
				C317.03,292.501,318.096,291.772,318.096,291.772z"/>
			<path style="fill:#4F4F4F;" d="M318.094,291.773l-1.287,1.516l-2.264-4.72l0.32-1.996c0,0,1.003,3.007,1.331,3.823
				C317.042,292.508,318.094,291.773,318.094,291.773z"/>
			<path style="fill:#4B4B4B;" d="M318.091,291.775l-1.284,1.513l-2.236-4.69l0.291-2.011c0,0,0.993,3.016,1.324,3.821
				C317.054,292.514,318.091,291.775,318.091,291.775z"/>
			<path style="fill:#484848;" d="M318.089,291.777l-1.28,1.509l-2.208-4.658l0.262-2.027c0,0,0.982,3.025,1.317,3.818
				C317.067,292.521,318.089,291.777,318.089,291.777z"/>
			<path style="fill:#444444;" d="M318.086,291.778l-1.277,1.506l-2.18-4.627l0.233-2.043c0,0,0.973,3.034,1.311,3.816
				C317.08,292.526,318.086,291.778,318.086,291.778z"/>
			<path style="fill:#414141;" d="M318.084,291.78l-1.274,1.503l-2.151-4.596l0.204-2.059c0,0,0.962,3.042,1.304,3.814
				C317.092,292.533,318.084,291.78,318.084,291.78z"/>
			<path style="fill:#3D3D3D;" d="M318.082,291.781l-1.271,1.5l-2.123-4.565l0.174-2.074c0,0,0.953,3.051,1.298,3.812
				C317.106,292.539,318.082,291.781,318.082,291.781z"/>
			<path style="fill:#3A3A3A;" d="M318.08,291.783l-1.268,1.496l-2.095-4.533l0.146-2.09c0,0,0.943,3.06,1.291,3.809
				C317.119,292.544,318.08,291.783,318.08,291.783z"/>
			<path style="fill:#363636;" d="M318.077,291.785l-1.264,1.494l-2.067-4.503l0.116-2.106c0,0,0.933,3.069,1.284,3.808
				C317.133,292.55,318.077,291.785,318.077,291.785z"/>
			<path style="fill:#333333;" d="M318.075,291.786l-1.261,1.49l-2.039-4.471l0.087-2.122c0,0,0.923,3.077,1.278,3.806
				C317.147,292.555,318.075,291.786,318.075,291.786z"/>
			<path style="fill:#2F2F2F;" d="M318.072,291.788l-1.258,1.487l-2.01-4.44l0.058-2.137c0,0,0.913,3.085,1.271,3.803
				C317.161,292.561,318.072,291.788,318.072,291.788z"/>
			<path style="fill:#2C2C2C;" d="M318.07,291.79l-1.254,1.484l-1.982-4.409l0.029-2.153c0,0,0.905,3.093,1.265,3.801
				C317.18,292.563,318.07,291.79,318.07,291.79z"/>
			<path style="fill:#282828;" d="M318.067,291.791l-1.251,1.48l-1.954-4.378v-2.169c0,0,0.893,3.103,1.258,3.799
				C317.189,292.57,318.067,291.791,318.067,291.791z"/>
		</g>
		<path style="fill-rule:evenodd;clip-rule:evenodd;fill:#4DA391;" d="M317.007,293.984l3.962-6.211h-0.134l-2.208,3.463
			c-0.594,0.927-1.558,0.927-2.151,0l-1.168-1.838c-0.777-1.21-1.236-2.096-2.096-2.365c-1.237-0.387-3.048-0.303-2.317,0.74
			l3.962,6.211C315.45,294.912,316.413,294.912,317.007,293.984L317.007,293.984z"/>
	</g>
</g>
</svg>
